<svg width="22" height="24" viewBox="0 0 22 24" fill="none" xmlns="http://www.w3.org/2000/svg">
<path fill-rule="evenodd" clip-rule="evenodd" d="M20.1158 22.517C19.8378 22.829 19.4588 23 19.0488 23H2.95081C2.54081 23 2.16181 22.829 1.88481 22.517C1.59681 22.194 1.46081 21.759 1.51081 21.324L3.15481 7H5.49981V9.154C5.20681 9.328 4.99981 9.634 4.99981 10C4.99981 10.553 5.44781 11 5.99981 11C6.55281 11 6.99981 10.553 6.99981 10C6.99981 9.634 6.79381 9.328 6.49981 9.154V7H15.4998V9.154C15.2068 9.328 14.9998 9.634 14.9998 10C14.9998 10.553 15.4478 11 15.9998 11C16.5528 11 16.9998 10.553 16.9998 10C16.9998 9.634 16.7938 9.328 16.4998 9.154V7H18.8458L20.4898 21.324C20.5398 21.759 20.4038 22.194 20.1158 22.517ZM6.49981 5.5C6.49981 3.019 8.51881 1 10.9998 1C13.4818 1 15.4998 3.019 15.4998 5.5V6H6.49981V5.5ZM21.4828 21.209L19.7378 6H16.4998V5.5C16.4998 2.468 14.0328 0 10.9998 0C7.96781 0 5.49981 2.468 5.49981 5.5V6H2.26281L0.516814 21.209C0.433814 21.928 0.660814 22.647 1.13781 23.183C1.60181 23.703 2.26181 24 2.95081 24H19.0488C19.7378 24 20.3988 23.703 20.8618 23.183C21.3398 22.647 21.5658 21.928 21.4828 21.209Z" fill="black"/>
</svg>
