<svg width="14" height="15" viewBox="0 0 14 15" fill="none" xmlns="http://www.w3.org/2000/svg">
<path fill-rule="evenodd" clip-rule="evenodd" d="M3.05049 3L-1.14441e-05 3V2L3.05049 2C3.28249 0.859 4.29099 0 5.49999 0C6.70949 0 7.71849 0.859 7.94949 2L14.0005 2V3L7.94949 3C7.71849 4.141 6.70999 5 5.49999 5C4.29049 5 3.28199 4.141 3.05049 3ZM8.05049 8L-1.14441e-05 8V7L8.05049 7C8.28249 5.859 9.29049 5 10.5 5C11.709 5 12.718 5.859 12.9495 7H14V8H12.9495C12.7175 9.141 11.709 10 10.5 10C9.29049 10 8.28199 9.141 8.05049 8ZM-1.14441e-05 13H1.05049C1.28199 14.141 2.29049 15 3.49999 15C4.70949 15 5.71849 14.141 5.94999 13L14 13V12L5.94999 12C5.71849 10.859 4.70949 10 3.49999 10C2.29049 10 1.28249 10.859 1.05049 12H-1.14441e-05V13ZM3.49999 11C4.32799 11 5.00049 11.6715 5.00049 12.5C5.00049 13.328 4.32799 14 3.49999 14C2.67199 14 1.99999 13.328 1.99999 12.5C1.99999 11.6715 2.67199 11 3.49999 11ZM10.5 6C11.3285 6 12 6.6715 12 7.5C12 8.328 11.3285 9 10.5 9C9.67149 9 9.00049 8.328 9.00049 7.5C9.00049 6.6715 9.67149 6 10.5 6ZM5.49949 1C6.32849 1 6.99949 1.6715 6.99949 2.5C6.99949 3.328 6.32849 4 5.49949 4C4.67149 4 3.99999 3.328 3.99999 2.5C3.99999 1.6715 4.67149 1 5.49949 1Z" fill="black"/>
</svg>
