<svg width="15" height="16" viewBox="0 0 15 16" fill="none" xmlns="http://www.w3.org/2000/svg">
<path fill-rule="evenodd" clip-rule="evenodd" d="M5.84813 0.135991C5.76464 0.0579958 5.65415 0.0105 5.53165 0.00500011C5.53137 0.00500011 5.53113 0.00496101 5.53092 0.00492668C5.53038 0.00483704 5.53001 0.00477886 5.52965 0.00549984C5.52609 0.00549984 5.52291 0.00446224 5.5198 0.00344467C5.51679 0.00246334 5.51384 0.00150013 5.51066 0.00150013C5.33067 0.00150013 5.18018 0.101994 5.09218 0.244985L0.139491 5.19718C-0.0464971 5.38366 -0.0464971 5.68614 0.139491 5.87263C0.32598 6.05912 0.628461 6.05912 0.815449 5.87263L5.01119 1.6769L5.01119 15.5C5.01119 15.7765 5.23517 16 5.51116 16C5.78764 16 6.01112 15.7765 6.01112 15.5L6.01112 0.500969C6.01112 0.497719 6.01025 0.494844 6.00937 0.49197C6.0085 0.489095 6.00762 0.486219 6.00762 0.48297C6.00762 0.482574 6.00755 0.482255 6.00745 0.481984C6.00731 0.481573 6.00712 0.481272 6.00712 0.48097C6.00212 0.358478 5.95413 0.248485 5.87663 0.16449C5.8739 0.161509 5.87314 0.157909 5.8724 0.154368C5.87164 0.150784 5.8709 0.147258 5.86813 0.144491C5.86537 0.141725 5.86184 0.140983 5.85826 0.140228C5.85471 0.139482 5.85112 0.138724 5.84813 0.135991ZM8.17399 15.8645C8.25798 15.942 8.36748 15.99 8.48997 15.9955C8.48997 15.9955 8.49047 15.996 8.49197 15.995C8.49522 15.995 8.49822 15.9959 8.50122 15.9968C8.50422 15.9976 8.50722 15.9985 8.51047 15.9985C8.68996 15.9985 8.84095 15.898 8.92844 15.755L13.8671 10.8033C14.0531 10.6168 14.0531 10.3144 13.8671 10.1279C13.6811 9.94138 13.3792 9.94138 13.1932 10.1279L9.00844 14.3231L9.00844 0.499969C9.00844 0.223986 8.78545 0 8.50997 0C8.23349 0 8.011 0.223986 8.011 0.499969L8.011 15.499C8.011 15.5028 8.01203 15.506 8.01306 15.5092C8.01392 15.5119 8.01477 15.5146 8.015 15.5175V15.519C8.0205 15.6415 8.068 15.751 8.14549 15.8355C8.14824 15.8385 8.14899 15.8421 8.14974 15.8458C8.15049 15.8494 8.15124 15.853 8.15399 15.856C8.15676 15.8588 8.16028 15.8595 8.16387 15.8603C8.16741 15.861 8.17101 15.8618 8.17399 15.8645Z" fill="black"/>
</svg>
